<svg width="47" height="60" viewBox="0 0 47 60" fill="none" xmlns="http://www.w3.org/2000/svg">
<g clip-path="url(#clip0_99_24)">
<g clip-path="url(#clip1_99_24)">
<path d="M35.7444 4.79103C36.0477 2.25301 38.0605 0.27005 40.5822 0.0252177C43.1038 -0.219616 45.4542 1.33969 46.2314 3.77283C47.0084 6.20596 46.0026 8.85695 43.8141 10.1442C42.0457 11.1841 39.8465 11.1244 38.1362 9.98983C36.4258 8.8553 35.4995 6.84157 35.7444 4.79103Z" fill="black"/>
</g>
<path d="M21.616 44.5886C21.9759 44.5998 23.467 44.2772 23.8538 44.1915C27.8043 43.3181 31.7692 41.6679 34.9484 39.1069C35.9434 38.3088 36.8633 37.42 37.6967 36.4512C38.063 36.027 38.3767 35.5696 38.7496 35.1505C39.0248 34.8297 39.6095 34.5153 39.6107 35.2118C39.6125 36.1663 39.251 37.2629 38.8975 38.1403C36.9622 42.9439 32.8676 46.5949 28.3113 48.8152C27.8709 49.0298 26.9939 49.2171 26.4905 49.3585L22.9535 50.3541C20.8394 50.9504 18.6157 51.5565 16.5593 52.3214C12.4537 53.8488 8.18169 56.506 5.17267 59.7505C5.16326 59.2874 5.17294 58.8243 5.20168 58.3621C5.48132 53.0559 7.8681 48.0876 11.8228 44.5793C12.1322 44.3076 12.452 44.048 12.7814 43.8014C13.0501 43.6021 13.4301 43.3485 13.6725 43.1438C13.7943 43.091 14.8447 42.4268 14.9187 42.349C15.024 42.3222 15.8092 41.888 15.9811 41.8006C16.563 41.5072 17.1549 41.2344 17.7557 40.9826C18.4502 40.7049 19.1552 40.4544 19.8691 40.2322C20.0927 40.1628 20.9498 39.9343 21.0847 39.8649C21.2006 39.864 22.7364 39.5019 22.8078 39.457C23.2124 39.4603 24.8119 39.0322 25.0252 39.1561C25.6422 39.8532 24.1521 41.1952 23.6894 41.5693C22.3464 42.6554 20.8483 43.5053 19.3363 44.323C19.2034 44.3957 19.0762 44.5226 19.0021 44.6568C18.9998 44.8745 19.2924 44.8832 19.4547 44.8603C20.1439 44.7626 20.9479 44.7701 21.616 44.5886Z" fill="black"/>
<path d="M5.41654 27.421C7.06279 28.3293 8.71852 29.8492 9.85378 31.3474C12.2215 34.472 13.0991 37.8947 12.8983 41.6417L12.7869 41.69L12.5987 41.8489C12.4031 42.0141 12.1814 42.151 11.7905 42.4408L11.7875 42.4431L11.7844 42.4454C11.4199 42.7183 11.0664 43.0054 10.7246 43.3054L10.7213 43.3083L10.7181 43.3112C10.6069 43.4098 10.4969 43.5095 10.388 43.6103C10.1419 43.1555 9.86729 42.7167 9.56566 42.2964C7.31794 39.1957 4.14802 37.8627 0.494873 37.291C2.4009 37.2458 4.70989 37.0242 6.30807 35.8791C9.39152 33.6696 7.07956 29.7476 5.41654 27.421Z" fill="black"/>
<path d="M3.68168 30.7502C4.77947 30.635 5.76396 31.4346 5.88689 32.5414C6.00984 33.6483 5.22518 34.6481 4.12936 34.7807C3.0212 34.9152 2.0169 34.1123 1.89257 32.9931C1.76825 31.8739 2.57158 30.8669 3.68168 30.7502Z" fill="black"/>
<path d="M22.1712 19.6941C24.4565 24.8099 24.6549 30.6278 22.7233 35.89C22.4568 36.602 22.1533 37.2988 21.814 37.9776C21.7395 37.9958 21.661 38.0147 21.5814 38.0335C21.3846 38.08 21.1908 38.1241 21.0433 38.1559C21.0032 38.1646 20.9689 38.1717 20.9406 38.1775L20.6769 38.1796L20.4066 38.3185C20.3969 38.3217 20.3855 38.3254 20.3724 38.3295C20.2893 38.3556 20.1781 38.3884 20.0517 38.4247C19.8329 38.4876 19.5098 38.5772 19.3775 38.6182L19.3758 38.6188C18.62 38.854 17.8739 39.1192 17.1393 39.4129L17.1266 39.418L17.1141 39.4233C16.4772 39.6901 15.8498 39.9793 15.2332 40.2902L15.2306 40.2915L15.228 40.2929C15.164 40.3254 15.0624 40.38 14.971 40.4291C14.9078 40.463 14.84 40.4994 14.771 40.5364C14.7734 40.4204 14.7746 40.3043 14.7747 40.1883C14.7531 35.0735 12.4122 30.7918 8.87918 27.2575C8.72082 27.1087 8.59847 26.982 8.45068 26.8221C8.5895 26.9189 8.72636 27.0185 8.86114 27.1209C12.0378 29.328 17.6418 32.1181 20.4652 27.8928C21.8822 25.7719 22.2323 22.1999 22.1712 19.6941Z" fill="black"/>
<path d="M16.0544 22.2942C17.604 22.1415 18.9846 23.2809 19.1438 24.8438C19.303 26.4067 18.1808 27.8057 16.6329 27.9742C15.0738 28.1439 13.6754 27.0015 13.5151 25.4275C13.3547 23.8535 14.4937 22.4481 16.0544 22.2942Z" fill="black"/>
<path d="M43.7807 14.4876C43.8934 15.9635 43.7918 17.7107 43.6089 19.1764C42.9528 24.7379 40.6877 29.981 37.0959 34.2513C35.0223 36.6963 32.6248 38.6685 29.9925 40.2745C28.6272 40.9571 27.1858 41.5186 25.7134 41.9635C25.8441 41.8195 25.9738 41.6655 26.0946 41.5049C26.3244 41.1995 26.6175 40.7478 26.7594 40.2061C26.9162 39.6072 26.9096 38.7505 26.273 38.0313L26.0934 37.8284L25.8598 37.6927C25.5892 37.5356 25.3384 37.4881 25.2251 37.4704C25.0901 37.4494 24.9714 37.4453 24.8892 37.4451C24.725 37.4447 24.5662 37.4603 24.4452 37.475C24.3092 37.4915 24.1629 37.5146 24.0191 37.5395C24.3169 36.905 24.5786 36.2795 24.8371 35.548C26.5626 30.666 26.3659 25.4562 24.8174 20.5562C24.3649 19.1242 23.8656 17.8923 23.2578 16.5225C23.8089 17.3223 24.292 18.0779 24.884 18.8607C27.7769 22.686 32.859 27.2647 37.7425 23.7505C40.6841 21.6139 42.4532 17.8121 43.7807 14.4876Z" fill="black"/>
<path d="M33.4821 15.3037C35.5524 15.0572 37.4297 16.548 37.6792 18.6366C37.9287 20.7252 36.456 22.6234 34.3868 22.8802C32.3102 23.138 30.4213 21.6455 30.1709 19.5496C29.9205 17.4537 31.4043 15.5511 33.4821 15.3037Z" fill="black"/>
</g>
<defs>
<clipPath id="clip0_99_24">
<rect width="47" height="60" fill="white"/>
</clipPath>
<clipPath id="clip1_99_24">
<rect x="35.7056" width="10.7864" height="10.8844" rx="5.3932" fill="white"/>
</clipPath>
</defs>
</svg>
