<svg width="1134" height="154" viewBox="0 0 1134 154" fill="none" xmlns="http://www.w3.org/2000/svg">
<path d="M0 148.477C9.8 148.477 16 143.077 16 128.877V21.2766C16 7.07664 9.8 1.67664 0 1.67664V0.0766391H74.2C98.6 0.0766391 120.4 9.47665 120.4 30.2766C120.4 53.2766 94.4 63.2766 73.2 72.8766L111.4 127.477C123 144.077 129.6 148.477 141 148.477V150.077H91V148.477C99.6 148.477 102 143.877 91.4 128.877L58.4 81.8766C46.6 91.0766 36.6 105.477 34 128.877C34 143.077 40.2 148.477 50 148.477V150.077H0V148.477ZM34 114.877C38.4 92.8766 55.4 78.6766 72.2 69.8766C91.4 59.8766 102.4 49.8766 102.4 30.0766C102.4 15.8767 92 3.27665 69.4 3.27665H34V114.877Z" fill="black"/>
<path d="M174.977 153.277C151.177 153.277 140.977 142.677 140.977 130.277C140.977 114.077 157.777 105.077 177.177 98.2766C195.977 91.6766 210.577 87.6766 210.577 73.6766C210.577 60.6766 200.977 50.0767 185.577 50.0767C171.777 50.0767 158.577 57.6766 152.377 75.2766H150.777V57.6766C162.377 49.0767 178.577 46.8766 186.977 46.8766C202.577 46.8766 218.977 54.8766 224.377 69.4766C227.377 77.4767 224.377 84.6766 216.377 87.8766C199.577 94.4766 186.977 98.4766 178.977 101.477C163.177 107.277 158.977 118.477 158.977 129.277C158.977 141.277 164.577 150.077 176.377 150.077C196.177 150.077 207.977 136.477 210.577 121.077V99.4766C210.577 96.6766 211.577 94.8766 214.377 93.6767L228.577 87.8766V125.877C228.577 144.677 232.377 147.077 244.577 144.277V145.877C237.977 148.477 231.377 150.077 225.777 150.077C218.577 150.077 210.577 145.077 210.577 135.077C202.977 145.277 191.777 153.277 174.977 153.277Z" fill="black"/>
<path d="M297.095 153.277C270.295 153.277 242.695 132.077 242.695 100.077C242.695 68.0766 268.095 46.8766 294.895 46.8766C308.895 46.8766 324.095 52.6766 333.895 68.2766V24.2766C333.895 10.0766 328.695 5.87665 317.895 5.87665V4.27664L348.695 0.0766391C350.895 -0.323356 351.895 0.876641 351.895 2.87664V128.877C351.895 143.077 358.095 148.477 367.895 148.477V150.077H349.895C341.295 150.077 333.895 145.477 333.895 135.077C326.295 145.277 315.095 153.277 297.095 153.277ZM260.695 100.077C260.895 135.677 279.295 150.077 299.095 150.077C317.695 150.077 331.695 134.477 333.895 121.077V82.2766C332.295 69.2766 317.095 50.0767 297.295 50.0767C279.495 50.0767 260.495 64.4766 260.695 100.077Z" fill="black"/>
<path d="M367.852 148.477C377.652 148.477 383.852 143.077 383.852 128.877V71.0767C383.852 56.8767 378.652 52.6766 367.852 52.6766V51.0766L398.652 46.8766C400.852 46.4766 401.852 47.6766 401.852 49.6766V128.877C401.852 143.077 408.052 148.477 417.852 148.477V150.077H367.852V148.477ZM379.652 17.8766L391.252 6.07665L403.052 17.8766L391.252 29.4766L379.652 17.8766Z" fill="black"/>
<path d="M453.766 153.277C429.966 153.277 419.766 142.677 419.766 130.277C419.766 101.877 460.966 93.4766 484.166 89.8766C500.966 87.2767 525.566 85.4766 545.366 77.4766V71.0767C545.366 56.8767 540.166 52.6766 529.366 52.6766V51.0766L560.166 46.8766C562.366 46.4766 563.366 47.6766 563.366 49.6766V66.0766C573.966 56.8766 583.366 46.8766 598.566 46.8766C618.766 46.8766 636.366 59.8766 636.366 82.2766V128.877C636.366 143.077 642.566 148.477 652.366 148.477V150.077H602.366V148.477C612.166 148.477 618.366 143.077 618.366 128.877V82.2766C618.366 59.2766 608.766 50.0767 596.966 50.0767C576.966 50.0767 568.166 71.8766 548.966 79.4766C536.566 84.4766 521.566 87.4766 507.366 89.6767V125.877C507.366 144.677 511.166 147.077 523.366 144.277V145.877C516.766 148.477 510.166 150.077 504.566 150.077C497.366 150.077 489.366 145.077 489.366 135.077C481.766 145.277 470.566 153.277 453.766 153.277ZM429.566 57.6766C441.166 49.0767 458.166 46.8766 464.766 46.8766C485.966 46.8766 506.366 56.0766 506.366 77.8766V78.6766C506.366 81.6766 504.966 83.6766 501.966 84.0766L489.366 85.8766V73.6766C489.366 57.4766 478.966 50.2766 464.766 50.0767C450.766 50.2766 437.366 57.4766 431.166 75.2766H429.566V57.6766ZM437.766 129.277C437.766 141.277 443.366 150.077 455.166 150.077C474.966 150.077 486.766 136.477 489.366 121.077V92.4766L484.966 93.0766C457.966 97.4766 437.766 104.677 437.766 129.277ZM529.366 148.477C539.166 148.477 545.366 143.077 545.366 128.877V85.0766C549.766 83.2766 553.566 81.4766 557.366 79.2766C559.966 77.6766 563.366 79.0767 563.366 83.8766V128.877C563.366 143.077 569.566 148.477 579.366 148.477V150.077H529.366V148.477Z" fill="black"/>
<path d="M702.697 153.277C681.897 153.277 666.697 142.277 666.697 110.277V50.0767H654.297V46.8766C657.697 46.8766 675.297 44.0766 681.497 25.0767H684.697V46.8766H704.297V50.0767H684.697V112.477C684.697 140.477 692.497 150.077 706.097 150.077C711.897 150.077 717.897 147.477 723.497 142.077L725.097 143.877C718.497 150.277 710.897 153.277 702.697 153.277Z" fill="black"/>
<path d="M757.148 148.477C766.948 148.477 773.148 143.077 773.148 128.877V21.2766C773.148 7.07664 766.948 1.67664 757.148 1.67664V0.0766391H831.348C855.748 0.0766391 877.548 9.47665 877.548 30.2766C877.548 53.2766 851.548 63.2766 830.348 72.8766L868.548 127.477C880.148 144.077 886.748 148.477 898.148 148.477V150.077H848.148V148.477C856.748 148.477 859.148 143.877 848.548 128.877L815.548 81.8766C803.748 91.0766 793.748 105.477 791.148 128.877C791.148 143.077 797.348 148.477 807.148 148.477V150.077H757.148V148.477ZM791.148 114.877C795.548 92.8766 812.548 78.6766 829.348 69.8766C848.548 59.8766 859.548 49.8766 859.548 30.0766C859.548 15.8767 849.148 3.27665 826.548 3.27665H791.148V114.877Z" fill="black"/>
<path d="M898.125 148.477C907.925 148.477 914.125 143.077 914.125 128.877V71.0767C914.125 56.8767 908.925 52.6766 898.125 52.6766V51.0766L928.925 46.8766C931.125 46.4766 932.125 47.6766 932.125 49.6766V128.877C932.125 143.077 938.325 148.477 948.125 148.477V150.077H898.125V148.477ZM909.925 17.8766L921.525 6.07665L933.325 17.8766L921.525 29.4766L909.925 17.8766Z" fill="black"/>
<path d="M988.686 153.277C974.686 153.277 958.686 147.477 948.086 139.477V121.877H949.686C957.886 144.877 979.886 150.077 988.686 150.077C1002.69 150.077 1016.29 144.077 1016.29 129.277C1016.29 102.477 948.086 109.477 948.086 73.2766C948.086 57.0766 964.086 46.8766 989.886 46.8766C997.086 46.8766 1012.89 49.0767 1024.49 57.6766V75.2766H1022.89C1016.69 57.0766 1002.69 50.0767 988.486 50.0767C971.486 50.0767 962.086 57.4766 962.086 67.4766C962.086 91.8766 1030.29 87.4766 1030.29 124.677C1030.29 142.677 1012.49 153.277 988.686 153.277Z" fill="black"/>
<path d="M1088.98 153.277C1061.98 153.277 1034.18 134.477 1034.18 100.077C1034.18 68.0766 1059.78 46.8766 1087.78 46.8766C1109.38 46.8766 1130.78 60.0766 1133.98 87.0766H1052.98C1052.58 91.0766 1052.18 95.4767 1052.18 100.077C1052.18 133.077 1069.18 150.077 1088.98 150.077C1104.78 150.077 1118.38 144.677 1128.98 132.277L1130.78 133.877C1119.98 146.877 1105.38 153.277 1088.98 153.277ZM1109.98 83.8766C1119.58 83.8766 1120.78 76.2766 1117.98 69.2766C1113.18 57.6767 1102.58 50.0767 1088.98 50.0767C1073.98 50.0767 1058.18 60.0767 1053.58 83.8766H1109.98ZM1076.18 17.8766L1087.78 6.07665L1099.58 17.8766L1087.78 29.4766L1076.18 17.8766Z" fill="black"/>
</svg>
