<svg width="2084" height="2084" viewBox="0 0 2084 2084" fill="none" xmlns="http://www.w3.org/2000/svg">
<g clip-path="url(#clip0_95_6)">
<path d="M1393.31 206.728C1405.78 103.308 1488.55 22.5059 1592.24 12.5294C1695.93 2.55284 1792.58 66.0918 1824.54 165.238C1856.49 264.384 1815.13 372.407 1725.14 424.859C1652.42 467.236 1561.99 464.801 1491.66 418.57C1421.33 372.34 1383.24 290.284 1393.31 206.728Z" fill="white"/>
</g>
<path d="M373.222 1127.88C409.963 1124.06 442.912 1150.58 447.026 1187.29C451.141 1224 424.88 1257.16 388.205 1261.56C351.117 1266.02 317.505 1239.39 313.344 1202.27C309.183 1165.15 336.069 1131.75 373.222 1127.88Z" fill="white"/>
<path d="M743.311 862.425C795.173 857.359 841.382 895.148 846.709 946.984C852.037 998.82 814.48 1045.22 762.672 1050.81C710.493 1056.44 663.69 1018.55 658.325 966.345C652.959 914.139 691.079 867.527 743.311 862.425Z" fill="white"/>
<path d="M1282.58 637.572C1351.87 629.396 1414.7 678.843 1423.05 748.114C1431.4 817.384 1382.11 880.342 1312.86 888.861C1243.36 897.41 1180.14 847.908 1171.76 778.395C1163.38 708.881 1213.04 645.776 1282.58 637.572Z" fill="white"/>
<path d="M911.59 1569.13C923.636 1569.5 973.539 1558.8 986.485 1555.96C1118.7 1526.99 1251.4 1472.26 1357.8 1387.32C1391.1 1360.85 1421.89 1331.37 1449.78 1299.24C1462.04 1285.17 1472.54 1270 1485.02 1256.1C1494.23 1245.46 1513.8 1235.03 1513.84 1258.13C1513.9 1289.79 1501.8 1326.16 1489.97 1355.26C1425.2 1514.58 1288.16 1635.67 1135.67 1709.31C1120.93 1716.43 1091.58 1722.64 1074.73 1727.33L956.353 1760.35C885.599 1780.13 811.176 1800.23 742.354 1825.6C604.947 1876.26 461.97 1964.39 361.264 2072C360.949 2056.64 361.273 2041.28 362.235 2025.95C371.594 1849.96 451.475 1685.18 583.831 1568.82C594.187 1559.81 604.888 1551.2 615.913 1543.02C624.907 1536.41 637.624 1528 645.738 1521.21C649.814 1519.46 684.969 1497.43 687.444 1494.85C690.97 1493.96 717.247 1479.56 723.001 1476.66C742.475 1466.93 762.285 1457.88 782.395 1449.53C805.639 1440.32 829.234 1432.01 853.124 1424.64C860.608 1422.34 889.295 1414.76 893.809 1412.46C897.688 1412.43 949.09 1400.42 951.477 1398.93C965.02 1399.04 1018.55 1384.84 1025.69 1388.95C1046.34 1412.07 996.469 1456.58 980.982 1468.99C936.036 1505.01 885.896 1533.2 835.293 1560.32C830.847 1562.73 826.587 1566.94 824.107 1571.39C824.03 1578.61 833.825 1578.9 839.257 1578.14C862.324 1574.9 889.23 1575.15 911.59 1569.13Z" fill="white"/>
<path d="M830.208 1577.91H830.209H830.208ZM827.946 1577.15H827.947H827.946ZM826.492 1576.31H826.493H826.492ZM861.751 1575.83C859.44 1576.02 857.141 1576.21 854.858 1576.41C855.619 1576.34 856.381 1576.28 857.146 1576.21L861.751 1575.83ZM824.263 1572.96C824.306 1573.15 824.358 1573.34 824.418 1573.52C824.508 1573.79 824.616 1574.05 824.74 1574.29C824.907 1574.61 825.103 1574.92 825.325 1575.2C824.824 1574.57 824.457 1573.83 824.263 1572.96ZM871.034 1575.07H871.035H871.034ZM824.11 1571.72H824.111H824.11ZM1632.26 595.506C1636.03 644.457 1632.63 702.404 1626.51 751.017C1604.55 935.474 1528.74 1109.37 1408.53 1251C1307.61 1368.93 1183.76 1453.7 1046.15 1516.16C1024.65 1522.32 1003 1527.77 981.348 1532.52L981.343 1532.52C974.959 1533.92 959.485 1537.25 944.191 1540.18C936.528 1541.64 929.097 1542.97 922.961 1543.9C919.889 1544.36 917.303 1544.7 915.269 1544.91C913.023 1545.15 912.201 1545.14 912.327 1545.14L911.712 1545.12C940.68 1527.94 969.163 1509.22 995.989 1487.72C1004.34 1481.03 1022.44 1465.36 1036 1447.5C1042.67 1438.71 1049.61 1427.65 1052.8 1415.6C1056.2 1402.73 1055.67 1386.49 1043.59 1372.96L1041.01 1370.08L1037.66 1368.15L1036.89 1367.72C1033.04 1365.67 1029.44 1364.97 1027.5 1364.67C1025.11 1364.3 1022.86 1364.21 1021.06 1364.2C1017.47 1364.19 1013.63 1364.54 1010.11 1364.96C1003 1365.82 994.502 1367.35 986.521 1368.86C978.573 1370.36 971.229 1371.83 964.61 1373.02C977.261 1347.34 987.835 1323.22 998.252 1294.01C1056 1132.09 1049.42 959.298 997.594 796.779C982.449 749.287 965.74 708.428 945.397 662.997C963.84 689.524 980.01 714.584 999.823 740.547C1096.64 867.421 1266.73 1019.28 1430.17 902.724C1528.62 831.861 1587.83 705.769 1632.26 595.506ZM917.124 1513.76C916.114 1514.39 915.103 1515.02 914.091 1515.64C915.103 1515.02 916.114 1514.39 917.124 1513.76ZM930.541 1505.23C928.351 1506.65 926.154 1508.06 923.95 1509.47C926.154 1508.06 928.351 1506.65 930.541 1505.23ZM939.703 1499.18C939.038 1499.62 938.371 1500.07 937.704 1500.51C939.116 1499.57 940.526 1498.63 941.932 1497.67L939.703 1499.18ZM963.894 1482.14L961.726 1483.74C963.047 1482.77 964.364 1481.8 965.678 1480.82C965.084 1481.26 964.489 1481.7 963.894 1482.14ZM972.495 1475.65C971.511 1476.41 970.523 1477.16 969.534 1477.91C969.808 1477.71 970.081 1477.5 970.354 1477.29L972.495 1475.65ZM994.473 1457.27C990.086 1461.36 986.063 1464.82 982.946 1467.39C986.063 1464.82 990.086 1461.36 994.473 1457.27ZM1012.27 1438.75C1011.79 1439.32 1011.3 1439.89 1010.81 1440.45C1011.3 1439.89 1011.79 1439.32 1012.27 1438.75ZM1020.25 1428.34C1019.96 1428.75 1019.68 1429.16 1019.39 1429.57C1019.68 1429.16 1019.96 1428.75 1020.25 1428.34ZM1030.6 1401.11C1030.6 1401.14 1030.6 1401.16 1030.61 1401.18C1030.6 1401.16 1030.6 1401.14 1030.6 1401.11ZM958.389 1398.35C956.952 1398.54 955.636 1398.69 954.463 1398.79C955.032 1398.74 955.635 1398.68 956.269 1398.61C956.585 1398.57 956.91 1398.54 957.242 1398.5C957.615 1398.45 957.997 1398.4 958.389 1398.35ZM1003.18 1390.24C990.823 1392.31 975.932 1395.47 964.792 1397.36C975.932 1395.47 990.823 1392.31 1003.18 1390.24ZM1027.42 1391.18C1027.68 1391.56 1027.92 1391.95 1028.14 1392.34L1028.46 1392.93C1028.15 1392.33 1027.81 1391.75 1027.42 1391.18ZM1021.01 1388.2C1017.7 1388.2 1013.12 1388.7 1007.85 1389.5C1013.12 1388.7 1017.7 1388.2 1021.01 1388.2ZM1025.51 1388.86L1025.51 1388.86L1025.51 1388.86Z" fill="white"/>
<path d="M595.626 1558.85L593.641 1560.49C594.665 1559.64 595.692 1558.8 596.723 1557.96C596.357 1558.26 595.991 1558.55 595.626 1558.85ZM400.277 996.465C455.374 1026.59 510.788 1077 548.783 1126.69C632.949 1236.76 660.855 1357.98 649.011 1491.4C646.207 1493.14 643.545 1494.77 641.251 1496.15C639.374 1497.28 637.828 1498.19 636.692 1498.84C636.179 1499.14 635.852 1499.31 635.677 1499.41L633.035 1500.54L630.336 1502.8C622.894 1509.03 612.446 1515.78 601.7 1523.68L601.612 1523.75C591.945 1530.92 582.52 1538.41 573.349 1546.19C563.497 1526.52 552.059 1507.67 539.141 1489.83C463.914 1386.99 357.823 1342.78 235.559 1323.82C299.35 1322.32 376.627 1314.97 430.115 1276.99C533.312 1203.71 455.935 1073.63 400.277 996.465ZM618.564 1541.1C617.652 1541.75 616.766 1542.39 615.913 1543.02C615.52 1543.31 615.128 1543.6 614.736 1543.9C615.128 1543.6 615.52 1543.31 615.913 1543.02C616.766 1542.39 617.652 1541.75 618.564 1541.1ZM630.122 1532.91C626.869 1535.22 623.604 1537.51 620.557 1539.67C623.604 1537.51 626.869 1535.22 630.122 1532.91ZM644.964 1521.85C644.058 1522.59 643.101 1523.35 642.104 1524.13C643.101 1523.35 644.058 1522.59 644.964 1521.85ZM619.851 1540.18C619.706 1540.28 619.56 1540.38 619.417 1540.48C619.56 1540.38 619.706 1540.28 619.851 1540.18Z" fill="white"/>
<path d="M716.584 1480.03C717.652 1479.46 718.643 1478.94 719.533 1478.47C718.643 1478.94 717.652 1479.46 716.584 1480.03ZM723.001 1476.66C722.312 1477.01 721.329 1477.52 720.126 1478.15C720.701 1477.85 721.226 1477.57 721.692 1477.33L723.001 1476.66ZM939.027 747.187C1015.51 916.859 1022.15 1109.82 957.505 1284.35C944.448 1318.92 928.727 1352.42 910.498 1384.54C906.348 1385.49 902.424 1386.36 899.108 1387.07C896.491 1387.63 894.376 1388.06 892.878 1388.34C892.599 1388.39 892.363 1388.44 892.167 1388.47L887.96 1388.5L883.248 1390.9C883.818 1390.62 883.026 1390.99 879.474 1392.09C876.315 1393.07 872.296 1394.25 868.006 1395.47C859.913 1397.77 850.109 1400.46 846.073 1401.7L846.062 1401.7L846.049 1401.71C821.557 1409.26 797.372 1417.78 773.554 1427.22L773.372 1427.29L773.191 1427.36C752.565 1435.93 732.247 1445.21 712.274 1455.19L712.236 1455.21L712.199 1455.23C709.089 1456.79 700.404 1461.48 693.196 1465.28C692.132 1465.84 691.086 1466.39 690.069 1466.92C690.998 1453.6 691.47 1440.26 691.481 1426.91C690.758 1257.27 612.411 1115.26 494.168 998.041C488.868 993.105 484.773 988.904 479.827 983.598C484.473 986.809 489.053 990.114 493.564 993.51C599.879 1066.71 787.438 1159.25 881.929 1019.11C929.354 948.767 941.07 830.297 939.027 747.187ZM791.128 1446.12C788.211 1447.24 785.3 1448.38 782.395 1449.53C777.367 1451.62 772.359 1453.75 767.369 1455.92C769.864 1454.84 772.363 1453.76 774.867 1452.69C776.12 1452.16 777.373 1451.63 778.628 1451.1C779.882 1450.58 781.138 1450.05 782.395 1449.53C785.3 1448.38 788.211 1447.24 791.128 1446.12ZM804.287 1441.16V1441.16V1441.16ZM862.665 1421.9C861.753 1422.16 860.873 1422.41 860.034 1422.65C860.873 1422.41 861.753 1422.16 862.665 1421.9Z" fill="white"/>
<defs>
<clipPath id="clip0_95_6">
<rect x="1391.71" y="11.5018" width="443.542" height="443.521" rx="221.761" fill="white"/>
</clipPath>
</defs>
</svg>
