<svg width="24" height="24" viewBox="0 0 24 24" fill="none" xmlns="http://www.w3.org/2000/svg">
<g clip-path="url(#clip0_895_98)">
<path d="M0 3V9H11V0H3C1.346 0 0 1.346 0 3ZM9 7H2V3C2 2.448 2.448 2 3 2H9V7ZM13 24H21C22.654 24 24 22.654 24 21V15H13V24ZM15 17H22V21C22 21.552 21.552 22 21 22H15V17ZM21 0H13V13H24V3C24 1.346 22.654 0 21 0ZM22 11H15V2H21C21.552 2 22 2.448 22 3V11ZM0 21C0 22.654 1.346 24 3 24H11V11H0V21ZM2 13H9V22H3C2.448 22 2 21.552 2 21V13Z" fill="black"/>
</g>
<defs>
<clipPath id="clip0_895_98">
<rect width="24" height="24" fill="white"/>
</clipPath>
</defs>
</svg>
