<svg width="24" height="24" viewBox="0 0 24 24" fill="none" xmlns="http://www.w3.org/2000/svg">
<g clip-path="url(#clip0_895_129)">
<path d="M12.01 7.77C13.02 6.76 14.67 6.75 15.69 7.77L16.73 8.81C16.96 9.04 17.35 9.04 17.58 8.81L23.53 2.86C22.73 1.17 21 0 19.01 0H10C7.24 0 5 2.24 5 5V11C5 12.07 5.34 13.06 5.91 13.87L12.01 7.77ZM9.5 3C10.33 3 11 3.67 11 4.5C11 5.33 10.33 6 9.5 6C8.67 6 8 5.33 8 4.5C8 3.67 8.67 3 9.5 3ZM12.33 23.82L3.66 21.41C0.999999 20.67 -0.560002 17.91 0.179999 15.25L1.79 9.47C2.02 8.65 2.44 7.93 3 7.35V11.01C3 14.88 6.13 18.01 10 18.01H19.14L18.49 20.35C17.75 23.01 14.99 24.57 12.33 23.83V23.82ZM24 5.21V11C24 13.76 21.76 16 19 16H10C9.03 16 8.13 15.72 7.36 15.25L13.42 9.19C13.65 8.96 14.04 8.96 14.27 9.19L15.31 10.23C16.29 11.21 18 11.21 18.98 10.23L24 5.21Z" fill="black"/>
</g>
<defs>
<clipPath id="clip0_895_129">
<rect width="24" height="24" fill="white"/>
</clipPath>
</defs>
</svg>
