<svg width="24" height="24" viewBox="0 0 24 24" fill="none" xmlns="http://www.w3.org/2000/svg">
<g clip-path="url(#clip0_895_127)">
<path d="M9 5.5C9 4.67 9.67 4 10.5 4C11.33 4 12 4.67 12 5.5C12 6.33 11.33 7 10.5 7C9.67 7 9 6.33 9 5.5ZM24 5V11C24 13.76 21.76 16 19 16H10C7.24 16 5 13.76 5 11V5C5 2.24 7.24 0 10 0H19C21.76 0 24 2.24 24 5ZM7 11C7 11.77 7.29 12.47 7.77 13.01L13.01 7.77C13.99 6.79 15.7 6.79 16.68 7.77L17.72 8.81C17.95 9.04 18.34 9.04 18.57 8.81L22 5.38V5C22 3.35 20.65 2 19 2H10C8.35 2 7 3.35 7 5V11ZM22 11V8.21L19.98 10.23C19 11.21 17.29 11.21 16.31 10.23L15.27 9.19C15.04 8.96 14.66 8.96 14.42 9.19L9.63 13.98C9.75 14 9.87 14 10 14H19C20.65 14 22 12.65 22 11ZM18.09 18.04C17.56 17.89 17.01 18.21 16.86 18.74L16.57 19.8C16.36 20.57 15.86 21.22 15.16 21.61C14.46 22.01 13.65 22.11 12.88 21.9L4.2 19.52C2.6 19.08 1.66 17.43 2.1 15.83L3.06 12.27C3.2 11.74 2.89 11.19 2.36 11.04C1.83 10.9 1.28 11.21 1.13 11.74L0.179999 15.29C-0.550001 17.95 1.02 20.71 3.68 21.44L12.36 23.82C12.8 23.94 13.25 24 13.69 24C14.55 24 15.39 23.78 16.16 23.34C17.32 22.68 18.15 21.61 18.51 20.32L18.8 19.26C18.95 18.73 18.63 18.18 18.1 18.03L18.09 18.04Z" fill="black"/>
</g>
<defs>
<clipPath id="clip0_895_127">
<rect width="24" height="24" fill="white"/>
</clipPath>
</defs>
</svg>
