<svg width="24" height="24" viewBox="0 0 24 24" fill="none" xmlns="http://www.w3.org/2000/svg">
<g clip-path="url(#clip0_895_90)">
<path d="M19 0H5C2.243 0 -3.57628e-07 2.243 -3.57628e-07 5V19C-3.57628e-07 21.757 2.243 24 5 24H19C21.757 24 24 21.757 24 19V5C24 2.243 21.757 0 19 0ZM5 2H19C20.654 2 22 3.346 22 5H2C2 3.346 3.346 2 5 2ZM2 19V7H7V22H5C3.346 22 2 20.654 2 19ZM19 22H9V7H22V19C22 20.654 20.654 22 19 22Z" fill="black"/>
</g>
<defs>
<clipPath id="clip0_895_90">
<rect width="24" height="24" fill="white"/>
</clipPath>
</defs>
</svg>
