<svg width="24" height="24" viewBox="0 0 24 24" fill="none" xmlns="http://www.w3.org/2000/svg">
<g clip-path="url(#clip0_895_120)">
<path d="M12 18C12.553 18 13 17.552 13 17V11.311L19.669 8.04001C20.431 7.64101 20.926 6.89101 20.992 6.03401C21.059 5.17601 20.686 4.35801 19.958 3.82001L14.77 0.323014C14.735 0.299014 14.697 0.277014 14.658 0.258014C13.896 -0.121986 12.897 -0.073986 12.171 0.375014C11.733 0.645014 11.001 1.30601 11.001 2.69301V17.001C11.001 17.553 11.448 18.001 12.001 18.001L12 18ZM16.175 12.355C15.88 12.301 15.584 12.384 15.358 12.574C15.132 12.764 15.001 13.044 15.001 13.34V17C15.001 18.654 13.655 20 12.001 20C10.347 20 9.001 18.654 9.001 17V13.34C9.001 13.044 8.87 12.764 8.644 12.574C8.418 12.384 8.123 12.303 7.827 12.355C3.001 13.21 0.002 15.373 0.002 18C0.002 21.42 5.161 24 12.002 24C18.843 24 24.002 21.42 24.002 18C24.002 15.374 21.003 13.211 16.177 12.355H16.175Z" fill="black"/>
</g>
<defs>
<clipPath id="clip0_895_120">
<rect width="24" height="24" fill="white"/>
</clipPath>
</defs>
</svg>
