<svg width="24" height="24" viewBox="0 0 24 24" fill="none" xmlns="http://www.w3.org/2000/svg">
<g clip-path="url(#clip0_895_118)">
<path d="M24 18C24 21.42 18.841 24 12 24C5.159 24 0 21.42 0 18C0 15.374 2.999 13.211 7.825 12.355C8.378 12.262 8.888 12.622 8.984 13.166C9.081 13.709 8.718 14.228 8.174 14.325C4.596 14.959 1.999 16.504 1.999 18C1.999 19.892 6.105 22 11.999 22C17.893 22 21.999 19.892 21.999 18C21.999 16.504 19.402 14.959 15.824 14.325C15.28 14.228 14.918 13.709 15.014 13.166C15.11 12.622 15.62 12.259 16.173 12.355C20.999 13.21 23.998 15.373 23.998 18H24ZM11 18V2.69201C11 1.30501 11.732 0.644007 12.17 0.374007C12.897 -0.0749931 13.896 -0.122993 14.657 0.257007C14.696 0.276007 19.958 3.81901 19.958 3.81901C20.687 4.35701 21.06 5.17501 20.992 6.03301C20.926 6.89001 20.43 7.64001 19.669 8.03901L13 11.31V17.999C13 18.551 12.553 18.999 12 18.999C11.447 18.999 11 18.552 11 18ZM13 9.08301L18.765 6.25501C18.948 6.15901 18.991 5.97701 18.998 5.87801C19.006 5.77801 18.991 5.59001 18.805 5.45201L13.726 2.03001C13.671 2.01101 13.599 1.99901 13.522 1.99901C13.42 1.99901 13.31 2.02001 13.222 2.07501C13.075 2.16601 13 2.37301 13 2.69201V9.08301Z" fill="black"/>
</g>
<defs>
<clipPath id="clip0_895_118">
<rect width="24" height="24" fill="white"/>
</clipPath>
</defs>
</svg>
