<svg width="24" height="24" viewBox="0 0 24 24" fill="none" xmlns="http://www.w3.org/2000/svg">
<g clip-path="url(#clip0_895_105)">
<path d="M12 24C5.383 24 0 18.617 0 12C0.603 -3.898 23.399 -3.893 24 12C24 18.617 18.617 24 12 24ZM12 3C7.038 3 3 7.038 3 12C3.453 23.923 20.549 23.92 21 12C21 7.038 16.962 3 12 3ZM12 19C2.749 18.706 2.751 5.293 12 5C21.251 5.294 21.249 18.707 12 19ZM12 8C6.726 8.139 6.727 15.862 12 16C17.274 15.861 17.273 8.138 12 8ZM12 14C9.372 13.953 9.372 10.046 12 10C14.628 10.047 14.628 13.954 12 14Z" fill="black"/>
</g>
<defs>
<clipPath id="clip0_895_105">
<rect width="24" height="24" fill="white"/>
</clipPath>
</defs>
</svg>
