<svg width="24" height="24" viewBox="0 0 24 24" fill="none" xmlns="http://www.w3.org/2000/svg">
<g clip-path="url(#clip0_895_115)">
<path d="M11 23.97C8.09057 23.97 5.30031 22.8142 3.24304 20.757C1.18576 18.6997 0.0299988 15.9094 0.0299988 13C0.0299988 10.0906 1.18576 7.30031 3.24304 5.24304C5.30031 3.18576 8.09057 2.03 11 2.03H12L12.013 3.03L12 12H21.97V13C21.9668 15.9084 20.81 18.6969 18.7535 20.7535C16.6969 22.81 13.9084 23.9668 11 23.97ZM10.012 4.085C8.33297 4.27124 6.74065 4.92783 5.41835 5.97919C4.09605 7.03055 3.09753 8.43395 2.53771 10.0278C1.9779 11.6217 1.87956 13.3413 2.25401 14.9886C2.62846 16.6359 3.46048 18.144 4.65429 19.3392C5.8481 20.5345 7.35518 21.3683 9.00203 21.7448C10.6489 22.1212 12.3686 22.025 13.9631 21.4671C15.5577 20.9092 16.9623 19.9124 18.0152 18.5913C19.0682 17.2703 19.7267 15.6788 19.915 14H10L10.012 4.085Z" fill="black"/>
<path d="M16.019 2.288C17.3926 2.64737 18.6459 3.36585 19.6501 4.36967C20.6542 5.3735 21.3731 6.62649 21.733 8H16.019V2.288ZM14.019 0.0340004V10H23.987C23.9741 7.36048 22.9197 4.83276 21.0531 2.96651C19.1864 1.10025 16.6585 0.0463563 14.019 0.0340004Z" fill="black"/>
</g>
<defs>
<clipPath id="clip0_895_115">
<rect width="24" height="24" fill="white"/>
</clipPath>
</defs>
</svg>
