<svg width="24" height="24" viewBox="0 0 24 24" fill="none" xmlns="http://www.w3.org/2000/svg">
<g clip-path="url(#clip0_895_103)">
<path d="M24 12C24 18.62 18.62 24 12 24C5.38 24 -3.57628e-07 18.62 -3.57628e-07 12C-3.57628e-07 5.38 5.38 3.68761e-06 12 3.68761e-06C12.19 3.68761e-06 12.38 3.68737e-06 12.57 0.0100037C13.4 0.0500037 14.04 0.750004 14 1.58C13.96 2.41 13.28 3.03 12.43 3.01C12.29 3.01 12.14 3 12 3C7.04 3 3 7.04 3 12C3 16.96 7.04 21 12 21C16.96 21 21 16.96 21 12C21 11.86 21 11.71 20.99 11.57C20.95 10.74 21.59 10.04 22.42 10C23.27 9.97001 23.95 10.6 23.99 11.43C23.99 11.62 24 11.81 24 12ZM10.91 8.15C11.71 7.92 12.17 7.1 11.95 6.3C11.73 5.5 10.89 5.04 10.1 5.26C7.1 6.11 5.01 8.88 5.01 12C5.01 15.86 8.15 19 12.01 19C15.13 19 17.9 16.91 18.75 13.91C18.98 13.11 18.51 12.28 17.71 12.06C16.91 11.83 16.08 12.3 15.86 13.1C15.38 14.81 13.79 16.01 12.01 16.01C9.8 16.01 8.01 14.22 8.01 12.01C8.01 10.23 9.21 8.64 10.92 8.16L10.91 8.15ZM10.94 10.94C10.35 11.53 10.35 12.48 10.94 13.06C11.23 13.35 11.62 13.5 12 13.5C12.38 13.5 12.77 13.35 13.06 13.06L18.12 8H20.5C20.9 8 21.28 7.84 21.56 7.56L23.56 5.56C23.99 5.13 24.12 4.49 23.89 3.93C23.66 3.37 23.11 3 22.5 3H21V1.5C21 0.890004 20.63 0.350004 20.07 0.110004C19.51 -0.119996 18.86 0.0100037 18.44 0.440004L16.44 2.44C16.16 2.72 16 3.1 16 3.5V5.88L10.94 10.94Z" fill="black"/>
</g>
<defs>
<clipPath id="clip0_895_103">
<rect width="24" height="24" fill="white"/>
</clipPath>
</defs>
</svg>
