<svg width="24" height="24" viewBox="0 0 24 24" fill="none" xmlns="http://www.w3.org/2000/svg">
<g clip-path="url(#clip0_895_139)">
<path d="M23.195 14.085L21.036 16.242V17.964C21.036 19.618 19.69 20.964 18.036 20.964H16.315L14.157 23.121C13.592 23.687 12.838 24 12.036 24C11.234 24 10.481 23.688 9.915 23.121L7.758 20.964H6.036C4.382 20.964 3.036 19.618 3.036 17.964V16.242L0.878999 14.085C-0.291001 12.916 -0.291001 11.012 0.878999 9.842L3.036 7.685V5.964C3.036 4.31 4.382 2.964 6.036 2.964H7.758L9.915 0.805997C11.049 -0.329003 13.026 -0.326003 14.158 0.805997L16.315 2.963H18.036C18.589 2.963 19.036 3.411 19.036 3.963C19.036 4.515 18.589 4.963 18.036 4.963H15.901C15.635 4.963 15.381 4.858 15.194 4.67L12.743 2.219C12.366 1.843 11.709 1.841 11.329 2.219L8.879 4.67C8.691 4.858 8.438 4.963 8.172 4.963H6.036C5.484 4.963 5.036 5.412 5.036 5.963V8.098C5.036 8.363 4.931 8.618 4.743 8.805L2.293 11.255C1.903 11.645 1.903 12.279 2.293 12.67L4.743 15.12C4.931 15.308 5.036 15.561 5.036 15.827V17.963C5.036 18.515 5.484 18.963 6.036 18.963H8.172C8.438 18.963 8.692 19.068 8.879 19.256L11.329 21.706C11.708 22.084 12.366 22.084 12.742 21.706L15.194 19.256C15.382 19.068 15.635 18.963 15.901 18.963H18.036C18.588 18.963 19.036 18.515 19.036 17.963V15.827C19.036 15.561 19.141 15.307 19.329 15.12L21.78 12.67C22.17 12.28 22.17 11.645 21.78 11.255C21.39 10.864 21.39 10.231 21.78 9.841C22.171 9.451 22.804 9.45 23.195 9.841C24.363 11.01 24.363 12.913 23.195 14.083V14.085ZM10.721 13.662L7.703 10.674C7.309 10.284 6.678 10.289 6.288 10.681C5.899 11.073 5.903 11.706 6.295 12.095L9.314 15.084C9.928 15.692 10.736 15.997 11.543 15.997C12.35 15.997 13.16 15.69 13.775 15.079L22.705 6.208C23.097 5.819 23.099 5.186 22.709 4.794C22.319 4.402 21.687 4.399 21.295 4.789L12.365 13.661C11.912 14.112 11.175 14.112 10.721 13.662Z" fill="black"/>
</g>
<defs>
<clipPath id="clip0_895_139">
<rect width="24" height="24" fill="white"/>
</clipPath>
</defs>
</svg>
