<svg width="24" height="24" viewBox="0 0 24 24" fill="none" xmlns="http://www.w3.org/2000/svg">
<g clip-path="url(#clip0_895_133)">
<path d="M23.126 9.868L20.975 7.714V5.996C20.975 4.345 19.633 3.001 17.984 3.001H16.268L14.117 0.847998C12.986 -0.283002 11.016 -0.283002 9.886 0.847998L7.735 3.001H6.019C4.369 3.001 3.028 4.344 3.028 5.996V7.714L0.876 9.868C-0.289 11.036 -0.289 12.935 0.876 14.103L3.027 16.257V17.975C3.027 19.626 4.369 20.97 6.018 20.97H7.734L9.885 23.123C10.45 23.688 11.202 24 12.001 24C12.8 24 13.551 23.688 14.116 23.123L16.267 20.97H17.983C19.633 20.97 20.974 19.627 20.974 17.975V16.257L23.126 14.103C24.291 12.935 24.291 11.036 23.126 9.868ZM18.204 10.211L13.15 15.206C12.536 15.816 11.727 16.122 10.919 16.122C10.111 16.122 9.306 15.817 8.69 15.209L6.091 12.71C5.699 12.321 5.695 11.689 6.084 11.296C6.474 10.905 7.105 10.9 7.499 11.289L10.097 13.787C10.55 14.236 11.287 14.237 11.741 13.787L16.796 8.791C17.19 8.401 17.822 8.405 18.211 8.798C18.6 9.191 18.596 9.822 18.204 10.211Z" fill="black"/>
</g>
<defs>
<clipPath id="clip0_895_133">
<rect width="24" height="24" fill="white"/>
</clipPath>
</defs>
</svg>
