<svg width="24" height="24" viewBox="0 0 24 24" fill="none" xmlns="http://www.w3.org/2000/svg">
<g clip-path="url(#clip0_895_124)">
<path d="M6.5 9H0.999999V8C0.999999 6.895 1.895 6 3 6H6C6.337 6 6.649 6.091 6.927 6.238C6.662 6.772 6.5 7.365 6.5 8V9ZM17.5 9H23V8C23 6.895 22.105 6 21 6H18C17.663 6 17.351 6.091 17.073 6.238C17.338 6.772 17.5 7.365 17.5 8V9ZM24.047 11L23.973 12.57C23.67 18.979 18.411 24 12 24C5.589 24 0.329999 18.979 0.0269991 12.57L-0.0470009 11H24.047ZM9.64 14C10.021 16.469 11.128 18.601 11.997 19.955C12.866 18.597 13.975 16.46 14.359 14H9.64ZM8.773 20.398C7.854 18.739 6.924 16.522 6.613 14H3.235C3.902 16.956 6.012 19.336 8.773 20.398ZM20.765 14H17.387C17.076 16.521 16.146 18.739 15.227 20.398C17.987 19.336 20.098 16.956 20.765 14ZM4.5 5C5.605 5 6.5 4.105 6.5 3C6.5 1.895 5.605 1 4.5 1C3.395 1 2.5 1.895 2.5 3C2.5 4.105 3.395 5 4.5 5ZM15.5 8C15.5 6.895 14.605 6 13.5 6H10.5C9.395 6 8.5 6.895 8.5 8V9H15.5V8ZM12 5C13.381 5 14.5 3.881 14.5 2.5C14.5 1.119 13.381 0 12 0C10.619 0 9.5 1.119 9.5 2.5C9.5 3.881 10.619 5 12 5ZM19.5 5C20.605 5 21.5 4.105 21.5 3C21.5 1.895 20.605 1 19.5 1C18.395 1 17.5 1.895 17.5 3C17.5 4.105 18.395 5 19.5 5Z" fill="black"/>
</g>
<defs>
<clipPath id="clip0_895_124">
<rect width="24" height="24" fill="white"/>
</clipPath>
</defs>
</svg>
