<svg width="24" height="24" viewBox="0 0 24 24" fill="none" xmlns="http://www.w3.org/2000/svg">
<g clip-path="url(#clip0_895_122)">
<path d="M3 3C3 1.895 3.895 1 5 1C6.105 1 7 1.895 7 3C7 4.105 6.105 5 5 5C3.895 5 3 4.105 3 3ZM12 5C13.381 5 14.5 3.881 14.5 2.5C14.5 1.119 13.381 0 12 0C10.619 0 9.5 1.119 9.5 2.5C9.5 3.881 10.619 5 12 5ZM19 5C20.105 5 21 4.105 21 3C21 1.895 20.105 1 19 1C17.895 1 17 1.895 17 3C17 4.105 17.895 5 19 5ZM12.001 24C5.749 24 0.611998 19.309 0.0509982 13.09C0.00199817 12.54 0.406998 12.054 0.956998 12.004C1.52 11.956 1.994 12.36 2.043 12.91C2.108 13.635 2.256 14.332 2.462 15H5.902C5.743 14.384 5.619 13.751 5.555 13.097C5.501 12.547 5.904 12.058 6.453 12.005C7.006 11.955 7.492 12.354 7.545 12.903C7.615 13.625 7.772 14.325 7.979 15H16.023C16.23 14.325 16.387 13.625 16.457 12.903C16.51 12.353 16.997 11.954 17.549 12.005C18.099 12.058 18.501 12.547 18.447 13.097C18.384 13.751 18.259 14.384 18.1 15H21.54C21.747 14.332 21.894 13.635 21.959 12.91C22.009 12.36 22.485 11.954 23.045 12.004C23.595 12.054 24.001 12.54 23.951 13.09C23.39 19.309 18.253 23.999 12.001 24ZM8.778 17C9.801 19.079 11.187 20.723 11.999 21.586C12.812 20.723 14.197 19.079 15.22 17H8.778ZM9.405 21.657C8.461 20.488 7.368 18.888 6.576 17H3.332C4.64 19.283 6.812 20.972 9.405 21.657ZM20.668 17H17.424C16.632 18.889 15.539 20.488 14.595 21.657C17.188 20.972 19.36 19.283 20.668 17ZM9 10H15C15.677 10.019 16.191 9.276 15.937 8.649C15.343 7.064 13.761 6 12 6C10.239 6 8.657 7.064 8.063 8.649C7.808 9.275 8.323 10.019 9 10ZM2 10H6.179C5.946 9.343 5.94 8.617 6.19 7.948C6.388 7.42 6.667 6.938 6.997 6.497C6.395 6.183 5.715 6 5 6C3.239 6 1.657 7.064 1.063 8.649C0.807998 9.275 1.323 10.019 2 10ZM17.003 6.497C17.332 6.938 17.612 7.42 17.81 7.948C18.06 8.617 18.054 9.342 17.821 10H22.001C22.678 10.019 23.192 9.276 22.938 8.649C22.344 7.064 20.762 6 19.001 6C18.286 6 17.604 6.183 17.003 6.497Z" fill="black"/>
</g>
<defs>
<clipPath id="clip0_895_122">
<rect width="24" height="24" fill="white"/>
</clipPath>
</defs>
</svg>
